<?xml version="1.0" encoding="utf-8"?>
<!-- Generator: Adobe Illustrator 25.2.1, SVG Export Plug-In . SVG Version: 6.00 Build 0)  -->
<!DOCTYPE svg PUBLIC "-//W3C//DTD SVG 1.0//EN" "http://www.w3.org/TR/2001/REC-SVG-20010904/DTD/svg10.dtd" [
	<!ENTITY st0 "fill:none;">
	<!ENTITY st1 "fill:none;stroke:#010101;stroke-width:0.85;stroke-miterlimit:10;">
	<!ENTITY st2 "fill:#0A1E27;">
	<!ENTITY st3 "fill:#C8E8E4;">
	<!ENTITY st4 "fill:#00209D;">
]>
<svg version="1.0" id="Layer_1" xmlns="http://www.w3.org/2000/svg" xmlns:xlink="http://www.w3.org/1999/xlink" x="0px" y="0px"
	 viewBox="0 0 101.5 317.4" style="enable-background:new 0 0 101.5 317.4;" xml:space="preserve">
<path style="&st0;" d="M2.2,183.5C2.3,130.3,2.4,4.8,2.4,4.8s-4.4-4.4,0-4.4h17.7c0,0,1,0.2,1,1.9s-2.9,2.2-2.9,2.2
	s0.4,124.4,0.3,179.5l-0.1-0.4c-0.1,8.3-0.1,13.5-0.2,14.1c-0.6,3.6-3.6,3.7-3.8,8.2s0.9,7.6,6.9,9.4s56.8,12.3,56.8,12.3
	s15.1,1.4,13.8,36v23.7l-2.8,20.9v8.7h-3.5v-8.7l-2.5-20.8v-23.8c0,0,0.7-22.7-3.9-25.1c-7.9-6-64.2-18.5-68.3-20.5
	c-4.2-2-3.5-10.2-3.5-14c-3.2-2-5.1-5.5-5.2-9.3V183"/>
<path id="Path_2" style="&st1;" d="M2.2,183.5C2.3,130.3,2.4,4.8,2.4,4.8s-4.4-4.4,0-4.4h17.7c0,0,1,0.2,1,1.9s-2.9,2.2-2.9,2.2
	s0.4,124.4,0.3,179.5l-0.1-0.4c-0.1,8.3-0.1,13.5-0.2,14.1c-0.6,3.6-3.6,3.7-3.8,8.2s0.9,7.6,6.9,9.4s56.8,12.3,56.8,12.3
	s15.1,1.4,13.8,36v23.7l-2.8,20.9v8.7h-3.5v-8.7l-2.5-20.8v-23.8c0,0,0.7-22.7-3.9-25.1c-7.9-6-64.2-18.5-68.3-20.5
	c-4.2-2-3.5-10.2-3.5-14c-3.2-2-5.1-5.5-5.2-9.3V183"/>
<path id="Path_136_1_" style="&st2;" d="M80.5,214.7l0.3-3.5c0,0-17-2.4-20.7-2.9s-3.4-3.8-2.8-6.8s6.7-3.6,15.6-3.6
	s23.5,0.1,26.5,1s2,5.3,2,8.3c-0.1,1-8.2,3.8-8.2,3.8v3.8L80.5,214.7z"/>
<path id="Path_136_3_" style="&st3;" d="M93.2,214.8c2,0,5,1.5,5,3.8s-3.2,3.2-3.2,3.2v21c1.4,0,2.5,1.1,2.5,2.5
	c0,2.4-1.8,2.6-1.8,2.6v15.8h-3.8l-8.8-0.1h-3.9v-15.7c-0.9-0.3-1.6-1.2-1.7-2.2c0-1.5,1.7-2.9,1.7-2.9v-3.6c0-0.4,0.1-0.7,0.2-1.1
	c0.6-2.5,0.6-5,0-7.5c-0.4-1.5-0.4-3.1-0.2-4.6c0.1-1.3-0.3-3-0.3-4.3c-1.7,0.1-2.7-2.4-2.7-4.2s4.3-2.8,4.3-2.8L93.2,214.8z"/>
<path id="Path_136_22_" style="&st4;" d="M78.9,221.6c-1.7,0.1-2.7-2.4-2.7-4.2s4.3-2.8,4.3-2.8l12.7,0.1c2,0,5,1.5,5,3.8
	s-3.2,3.2-3.2,3.2L78.9,221.6z"/>
<path id="Path_136_21_" style="&st4;" d="M79.2,247.8c-0.9-0.3-1.6-1.2-1.7-2.2c0-1.5,1.7-2.9,1.7-2.9H95c1.4,0,2.5,1.1,2.5,2.5
	c0,2.4-1.8,2.6-1.8,2.6L79.2,247.8z"/>
<line id="Line_149_27_" style="&st1;" x1="7.2" y1="167.2" x2="12.9" y2="167.2"/>
<line id="Line_150_27_" style="&st1;" x1="7.2" y1="169.8" x2="12.9" y2="169.8"/>
<line id="Line_154_27_" style="&st1;" x1="7.2" y1="172.4" x2="12.9" y2="172.4"/>
<line id="Line_155_27_" style="&st1;" x1="7.2" y1="175" x2="12.9" y2="175"/>
<line id="Line_136_54_" style="&st1;" x1="4.5" y1="177.6" x2="15.6" y2="177.6"/>
<line id="Line_136_53_" style="&st1;" x1="4.5" y1="164.7" x2="15.6" y2="164.7"/>
<line id="Line_149_26_" style="&st1;" x1="7.2" y1="180.1" x2="12.9" y2="180.1"/>
<line id="Line_150_26_" style="&st1;" x1="7.2" y1="182.7" x2="12.9" y2="182.7"/>
<line id="Line_154_26_" style="&st1;" x1="7.2" y1="185.3" x2="12.9" y2="185.3"/>
<line id="Line_155_26_" style="&st1;" x1="7.2" y1="187.9" x2="12.9" y2="187.9"/>
<line id="Line_136_52_" style="&st1;" x1="4.5" y1="190.4" x2="15.6" y2="190.4"/>
<line id="Line_136_51_" style="&st1;" x1="4.5" y1="190.4" x2="15.6" y2="190.4"/>
<line id="Line_149_25_" style="&st1;" x1="7.2" y1="141.5" x2="12.9" y2="141.5"/>
<line id="Line_150_25_" style="&st1;" x1="7.2" y1="144.1" x2="12.9" y2="144.1"/>
<line id="Line_154_25_" style="&st1;" x1="7.2" y1="146.6" x2="12.9" y2="146.6"/>
<line id="Line_155_25_" style="&st1;" x1="7.2" y1="149.2" x2="12.9" y2="149.2"/>
<line id="Line_136_50_" style="&st1;" x1="4.5" y1="151.8" x2="15.6" y2="151.8"/>
<line id="Line_136_49_" style="&st1;" x1="4.5" y1="138.9" x2="15.6" y2="138.9"/>
<line id="Line_149_24_" style="&st1;" x1="7.2" y1="154.4" x2="12.9" y2="154.4"/>
<line id="Line_150_24_" style="&st1;" x1="7.2" y1="156.9" x2="12.9" y2="156.9"/>
<line id="Line_154_24_" style="&st1;" x1="7.2" y1="159.5" x2="12.9" y2="159.5"/>
<line id="Line_155_24_" style="&st1;" x1="7.2" y1="162.1" x2="12.9" y2="162.1"/>
<line id="Line_136_48_" style="&st1;" x1="4.5" y1="164.7" x2="15.6" y2="164.7"/>
<line id="Line_136_47_" style="&st1;" x1="4.5" y1="164.7" x2="15.6" y2="164.7"/>
<line id="Line_149_23_" style="&st1;" x1="7.2" y1="115.7" x2="12.9" y2="115.7"/>
<line id="Line_150_23_" style="&st1;" x1="7.2" y1="118.3" x2="12.9" y2="118.3"/>
<line id="Line_154_23_" style="&st1;" x1="7.2" y1="120.9" x2="12.9" y2="120.9"/>
<line id="Line_155_23_" style="&st1;" x1="7.2" y1="123.4" x2="12.9" y2="123.4"/>
<line id="Line_136_46_" style="&st1;" x1="4.5" y1="126" x2="15.6" y2="126"/>
<line id="Line_136_45_" style="&st1;" x1="4.5" y1="113.1" x2="15.6" y2="113.1"/>
<line id="Line_149_22_" style="&st1;" x1="7.2" y1="128.6" x2="12.9" y2="128.6"/>
<line id="Line_150_22_" style="&st1;" x1="7.2" y1="131.2" x2="12.9" y2="131.2"/>
<line id="Line_154_22_" style="&st1;" x1="7.2" y1="133.7" x2="12.9" y2="133.7"/>
<line id="Line_155_22_" style="&st1;" x1="7.2" y1="136.3" x2="12.9" y2="136.3"/>
<line id="Line_136_44_" style="&st1;" x1="4.5" y1="138.9" x2="15.6" y2="138.9"/>
<line id="Line_136_43_" style="&st1;" x1="4.5" y1="138.9" x2="15.6" y2="138.9"/>
<line id="Line_149_21_" style="&st1;" x1="7.2" y1="89.9" x2="12.9" y2="89.9"/>
<line id="Line_150_21_" style="&st1;" x1="7.2" y1="92.5" x2="12.9" y2="92.5"/>
<line id="Line_154_21_" style="&st1;" x1="7.2" y1="95.1" x2="12.9" y2="95.1"/>
<line id="Line_155_21_" style="&st1;" x1="7.2" y1="97.7" x2="12.9" y2="97.7"/>
<line id="Line_136_42_" style="&st1;" x1="4.5" y1="100.3" x2="15.6" y2="100.3"/>
<line id="Line_136_41_" style="&st1;" x1="4.5" y1="87.4" x2="15.6" y2="87.4"/>
<line id="Line_149_20_" style="&st1;" x1="7.2" y1="102.8" x2="12.9" y2="102.8"/>
<line id="Line_150_20_" style="&st1;" x1="7.2" y1="105.4" x2="12.9" y2="105.4"/>
<line id="Line_154_20_" style="&st1;" x1="7.2" y1="108" x2="12.9" y2="108"/>
<line id="Line_155_20_" style="&st1;" x1="7.2" y1="110.5" x2="12.9" y2="110.5"/>
<line id="Line_136_40_" style="&st1;" x1="4.5" y1="113.1" x2="15.6" y2="113.1"/>
<line id="Line_136_39_" style="&st1;" x1="4.5" y1="113.1" x2="15.6" y2="113.1"/>
<line id="Line_149_19_" style="&st1;" x1="7.2" y1="64.2" x2="12.9" y2="64.2"/>
<line id="Line_150_19_" style="&st1;" x1="7.2" y1="66.7" x2="12.9" y2="66.7"/>
<line id="Line_154_19_" style="&st1;" x1="7.2" y1="69.3" x2="12.9" y2="69.3"/>
<line id="Line_155_19_" style="&st1;" x1="7.2" y1="71.9" x2="12.9" y2="71.9"/>
<line id="Line_136_38_" style="&st1;" x1="4.5" y1="74.5" x2="15.6" y2="74.5"/>
<line id="Line_136_37_" style="&st1;" x1="4.5" y1="61.6" x2="15.6" y2="61.6"/>
<line id="Line_149_18_" style="&st1;" x1="7.2" y1="77" x2="12.9" y2="77"/>
<line id="Line_150_18_" style="&st1;" x1="7.2" y1="79.6" x2="12.9" y2="79.6"/>
<line id="Line_154_18_" style="&st1;" x1="7.2" y1="82.2" x2="12.9" y2="82.2"/>
<line id="Line_155_18_" style="&st1;" x1="7.2" y1="84.8" x2="12.9" y2="84.8"/>
<line id="Line_136_36_" style="&st1;" x1="4.5" y1="87.4" x2="15.6" y2="87.4"/>
<line id="Line_136_35_" style="&st1;" x1="4.5" y1="87.4" x2="15.6" y2="87.4"/>
<line id="Line_149_17_" style="&st1;" x1="7.2" y1="38.4" x2="12.9" y2="38.4"/>
<line id="Line_150_17_" style="&st1;" x1="7.2" y1="41" x2="12.9" y2="41"/>
<line id="Line_154_17_" style="&st1;" x1="7.2" y1="43.6" x2="12.9" y2="43.6"/>
<line id="Line_155_17_" style="&st1;" x1="7.2" y1="46.1" x2="12.9" y2="46.1"/>
<line id="Line_136_34_" style="&st1;" x1="4.5" y1="48.7" x2="15.6" y2="48.7"/>
<line id="Line_136_33_" style="&st1;" x1="4.5" y1="35.8" x2="15.6" y2="35.8"/>
<line id="Line_149_16_" style="&st1;" x1="7.2" y1="51.3" x2="12.9" y2="51.3"/>
<line id="Line_150_16_" style="&st1;" x1="7.2" y1="53.8" x2="12.9" y2="53.8"/>
<line id="Line_154_16_" style="&st1;" x1="7.2" y1="56.4" x2="12.9" y2="56.4"/>
<line id="Line_155_16_" style="&st1;" x1="7.2" y1="59" x2="12.9" y2="59"/>
<line id="Line_136_32_" style="&st1;" x1="4.5" y1="61.6" x2="15.6" y2="61.6"/>
<line id="Line_136_31_" style="&st1;" x1="4.5" y1="61.6" x2="15.6" y2="61.6"/>
<line id="Line_136_30_" style="&st1;" x1="4.5" y1="22.9" x2="15.6" y2="22.9"/>
<line id="Line_149_15_" style="&st1;" x1="7.2" y1="25.5" x2="12.9" y2="25.5"/>
<line id="Line_150_15_" style="&st1;" x1="7.2" y1="28.1" x2="12.9" y2="28.1"/>
<line id="Line_154_15_" style="&st1;" x1="7.2" y1="30.7" x2="12.9" y2="30.7"/>
<line id="Line_155_15_" style="&st1;" x1="7.2" y1="33.2" x2="12.9" y2="33.2"/>
<line id="Line_136_29_" style="&st1;" x1="4.5" y1="35.8" x2="15.6" y2="35.8"/>
<line id="Line_136_27_" style="&st1;" x1="4.5" y1="35.8" x2="15.6" y2="35.8"/>
<line id="Line_149_14_" style="&st1;" x1="7.2" y1="193" x2="12.9" y2="193"/>
<line id="Line_150_14_" style="&st1;" x1="7.2" y1="195.6" x2="12.9" y2="195.6"/>
<line id="Line_154_14_" style="&st1;" x1="7.2" y1="198.2" x2="12.9" y2="198.2"/>
<line id="Line_155_14_" style="&st1;" x1="7.2" y1="200.7" x2="12.9" y2="200.7"/>
</svg>
