<?xml version="1.0" encoding="utf-8"?>
<!-- Generator: Adobe Illustrator 25.2.1, SVG Export Plug-In . SVG Version: 6.00 Build 0)  -->
<!DOCTYPE svg PUBLIC "-//W3C//DTD SVG 1.0//EN" "http://www.w3.org/TR/2001/REC-SVG-20010904/DTD/svg10.dtd" [
	<!ENTITY st0 "fill:none;">
	<!ENTITY st1 "fill:none;stroke:#010101;stroke-width:0.85;stroke-miterlimit:10;">
]>
<svg version="1.0" id="Layer_1" xmlns="http://www.w3.org/2000/svg" xmlns:xlink="http://www.w3.org/1999/xlink" x="0px" y="0px"
	 viewBox="0 0 101.5 317.4" style="enable-background:new 0 0 101.5 317.4;" xml:space="preserve">
<path style="&st0;" d="M2.2,183.5C2.3,130.3,2.4,4.8,2.4,4.8s-4.4-4.4,0-4.4h17.7c0,0,1,0.2,1,1.9s-2.9,2.2-2.9,2.2
	s0.4,124.4,0.3,179.5l-0.1-0.4c-0.1,8.3-0.1,13.5-0.2,14.1c-0.6,3.6-3.6,3.7-3.8,8.2s0.9,7.6,6.9,9.4s56.8,12.3,56.8,12.3
	s15.1,1.4,13.8,36v23.7l-2.8,20.9v8.7h-3.5v-8.7l-2.5-20.8v-23.8c0,0,0.7-22.7-3.9-25.1c-7.9-6-64.2-18.5-68.3-20.5
	c-4.2-2-3.5-10.2-3.5-14c-3.2-2-5.1-5.5-5.2-9.3V183"/>
<path id="Path_2" style="&st1;" d="M2.2,183.5C2.3,130.3,2.4,4.8,2.4,4.8s-4.4-4.4,0-4.4h17.7c0,0,1,0.2,1,1.9s-2.9,2.2-2.9,2.2
	s0.4,124.4,0.3,179.5l-0.1-0.4c-0.1,8.3-0.1,13.5-0.2,14.1c-0.6,3.6-3.6,3.7-3.8,8.2s0.9,7.6,6.9,9.4s56.8,12.3,56.8,12.3
	s15.1,1.4,13.8,36v23.7l-2.8,20.9v8.7h-3.5v-8.7l-2.5-20.8v-23.8c0,0,0.7-22.7-3.9-25.1c-7.9-6-64.2-18.5-68.3-20.5
	c-4.2-2-3.5-10.2-3.5-14c-3.2-2-5.1-5.5-5.2-9.3V183"/>
</svg>
