<?xml version="1.0" encoding="utf-8"?>
<!-- Generator: Adobe Illustrator 25.2.1, SVG Export Plug-In . SVG Version: 6.00 Build 0)  -->
<!DOCTYPE svg PUBLIC "-//W3C//DTD SVG 1.0//EN" "http://www.w3.org/TR/2001/REC-SVG-20010904/DTD/svg10.dtd" [
	<!ENTITY st0 "fill:none;stroke:#010101;stroke-miterlimit:10;">
]>
<svg version="1.0" id="Layer_1" xmlns="http://www.w3.org/2000/svg" xmlns:xlink="http://www.w3.org/1999/xlink" x="0px" y="0px"
	 viewBox="0 0 100.2 141.4" style="enable-background:new 0 0 100.2 141.4;" xml:space="preserve">
<path style="&st0;" d="M89.1,140.5c-6,0-38.7,0-38.7,0h-0.6c0,0-33.7,0-39.7,0H9.6l-0.4-0.2c-10.3-3.7-9.9-14.4-8.3-19.6l27.9-89.1
	V9.4c-1.2-0.9-2.1-2.2-2.1-3.9c0-2.3,1.6-4.1,3.7-4.6l0.3-0.1h38.9L69.8,1c2.1,0.5,3.7,2.3,3.7,4.5c0,1.7-0.9,3.1-2.1,3.9v22.3
	l27.8,89c0.3,0.8,2.1,6.6-0.4,12c-1.6,3.5-4.6,6-8.9,7.6l-0.4,0.2H89.1z"/>
</svg>
