<?xml version="1.0" encoding="utf-8"?>
<!-- Generator: Adobe Illustrator 25.2.1, SVG Export Plug-In . SVG Version: 6.00 Build 0)  -->
<!DOCTYPE svg PUBLIC "-//W3C//DTD SVG 1.0//EN" "http://www.w3.org/TR/2001/REC-SVG-20010904/DTD/svg10.dtd">
<svg version="1.0" id="Layer_1" xmlns="http://www.w3.org/2000/svg" xmlns:xlink="http://www.w3.org/1999/xlink" x="0px" y="0px"
	 viewBox="0 0 32.6 32.6" style="enable-background:new 0 0 32.6 32.6;" xml:space="preserve">
<path id="Path_108" d="M30.8,2.2c-2.3-2.2-5.9-2.3-8.2-0.1l-5.2,5.1c-0.9-0.8-2.3-0.6-3,0.2c-0.6,0.7-0.7,1.7-0.2,2.5l-9.8,9.4
	c-1.3,1.3-2,2.9-2.3,4.7l-0.2,2.6l-1.5,1.5c-0.4,0.4-0.4,1.1,0,1.5l0,0l2.1,2.1c0.4,0.4,1.1,0.4,1.5,0l0,0l1.5-1.5L8,30.1
	c1.8-0.1,3.5-0.8,4.7-2.1l9.8-9.4c1,0.6,2.3,0.3,2.9-0.7c0.5-0.8,0.4-1.8-0.2-2.5l5.3-5.1C33,8.1,33.1,4.4,30.8,2.2z"/>
</svg>
