<?xml version="1.0" encoding="utf-8"?>
<!-- Generator: Adobe Illustrator 25.2.1, SVG Export Plug-In . SVG Version: 6.00 Build 0)  -->
<!DOCTYPE svg PUBLIC "-//W3C//DTD SVG 1.0//EN" "http://www.w3.org/TR/2001/REC-SVG-20010904/DTD/svg10.dtd">
<svg version="1.0" id="Layer_1" xmlns="http://www.w3.org/2000/svg" xmlns:xlink="http://www.w3.org/1999/xlink" x="0px" y="0px"
	 viewBox="0 0 32.6 32.6" style="enable-background:new 0 0 32.6 32.6;" xml:space="preserve">
<g id="icons8_color_dropper" transform="matrix(1, 0.017, -0.017, 1, -6.361, -6.126)">
	<path id="Path_108" d="M37.3,7.7c-2.3-2.2-5.9-2.2-8.2,0L24,12.9c-0.9-0.8-2.3-0.6-3,0.3c-0.6,0.7-0.7,1.7-0.2,2.5l-9.6,9.6
		c-1.3,1.3-2,2.9-2.2,4.7l-0.2,2.6l-1.5,1.5c-0.4,0.4-0.4,1.1,0,1.5c0,0,0,0,0,0l2.1,2.1c0.4,0.4,1.1,0.4,1.5,0c0,0,0,0,0,0l1.5-1.5
		L15,36c1.8-0.1,3.5-0.9,4.7-2.2l9.6-9.6c1,0.6,2.3,0.3,2.9-0.7c0.5-0.8,0.4-1.8-0.2-2.5l5.2-5.2C39.6,13.6,39.6,9.9,37.3,7.7z
		 M18.8,33c-1,1.1-2.4,1.7-3.9,1.8L12.1,35c-0.2,0-0.3,0.1-0.4,0.2l-1.5,1.5l-1.8-1.8l1.5-1.5c0.1-0.1,0.2-0.3,0.2-0.4l0.2-2.8
		c0.1-1.5,0.7-2.9,1.8-3.9l9.6-9.6l6.8,6.8L18.8,33z"/>
	<path id="Path_109" d="M36.4,14.9l-5.2,5.2l-6.3-6.3l5.2-5.2c1.8-1.8,4.6-1.8,6.3,0S38.2,13.2,36.4,14.9L36.4,14.9L36.4,14.9z
		 M23.2,13.9c-0.3-0.4-0.9-0.4-1.2-0.1c-0.4,0.3-0.4,0.9-0.1,1.2c0,0,0,0,0.1,0.1l7.8,7.9c0.3,0.4,0.9,0.4,1.2,0
		c0.4-0.3,0.4-0.9,0-1.2c0,0,0,0,0,0L23.2,13.9z"/>
</g>
</svg>
