<?xml version="1.0" encoding="utf-8"?>
<!-- Generator: Adobe Illustrator 25.2.1, SVG Export Plug-In . SVG Version: 6.00 Build 0)  -->
<!DOCTYPE svg PUBLIC "-//W3C//DTD SVG 1.0//EN" "http://www.w3.org/TR/2001/REC-SVG-20010904/DTD/svg10.dtd" [
	<!ENTITY st0 "fill:none;stroke:#010101;stroke-miterlimit:10;">
]>
<svg version="1.0" id="Layer_1" xmlns="http://www.w3.org/2000/svg" xmlns:xlink="http://www.w3.org/1999/xlink" x="0px" y="0px"
	 viewBox="0 0 226.9 404.8" style="enable-background:new 0 0 226.9 404.8;" xml:space="preserve">
<g id="Group_146" transform="translate(-484.513 -79.777)">
	<g id="Group_145">
		<path id="Path_130" style="&st0;" d="M710.9,480.7c0,1.9-2.8,3.4-6.1,3.4H498.1c-3.4,0-6.1-1.5-6.1-3.4s2.8-3.4,6.1-3.4h6.1
			c-0.1-0.5-0.1-1,0-1.5l1.1-389.2c0-3.5,2.9-6.4,6.4-6.4c3.5,0,6.4,2.9,6.4,6.4l0.6,389.2c0.1,0.5,0.1,1,0,1.5h186.2
			C708.2,477.4,710.9,478.9,710.9,480.7z"/>
		<path id="Path_131" style="&st0;" d="M567.9,236.3h15.9v7h-18.5l-5.9-6.6h-34v9.2h-7.2V222h7.2v9.2h34l5.9-6.6h18.5v7h-15.9V236.3
			z"/>
		<path id="Path_132" style="&st0;" d="M500.2,236.7v9.2h4.6V222h-4.6v9.2h-3.7v-7.7h-9.7l-1.7,1.7v18.1l0.9,0.9h10.3v-7.8
			L500.2,236.7z"/>
		<line id="Line_146" style="&st0;" x1="518.6" y1="477.4" x2="504.1" y2="477.4"/>
	</g>
</g>
</svg>
